<?xml version="1.0" standalone="no"?>
<!DOCTYPE svg PUBLIC "-//W3C//DTD SVG 20010904//EN"
 "http://www.w3.org/TR/2001/REC-SVG-20010904/DTD/svg10.dtd">
<svg version="1.0" xmlns="http://www.w3.org/2000/svg"
 width="1356.000000pt" height="1356.000000pt" viewBox="0 0 1356.000000 1356.000000"
 preserveAspectRatio="xMidYMid meet">
<metadata>
Created by potrace 1.11, written by Peter Selinger 2001-2013
</metadata>
<g transform="translate(0.000000,1356.000000) scale(0.100000,-0.100000)"
fill="#000000" stroke="none">
<path d="M4659 13081 c-182 -58 -342 -275 -463 -629 -76 -222 -168 -621 -206
-897 -7 -49 -16 -93 -19 -97 -4 -4 -49 40 -100 97 -252 282 -525 502 -715 576
-67 27 -95 32 -166 33 -76 1 -91 -2 -139 -29 -29 -16 -69 -48 -88 -70 -78 -89
-143 -277 -175 -505 -18 -134 -16 -754 4 -960 9 -85 14 -156 13 -158 -2 -2
-54 1 -116 7 -458 41 -864 12 -1171 -85 -433 -137 -673 -437 -655 -819 7 -126
24 -198 74 -303 19 -40 39 -96 44 -125 5 -29 14 -245 19 -482 24 -1050 35
-1266 80 -1613 91 -692 287 -1245 593 -1671 l61 -84 -27 -136 c-48 -244 -60
-377 -60 -636 0 -329 33 -567 119 -874 168 -598 549 -1196 1068 -1680 294
-274 699 -571 1031 -756 1117 -623 2690 -869 4189 -654 892 127 1680 407 2321
824 127 82 399 286 565 423 159 131 466 441 586 592 362 453 596 924 710 1425
51 220 66 355 71 631 6 294 -7 459 -56 702 l-28 137 28 40 29 39 -75 18 c-213
50 -409 196 -520 386 -25 42 -45 81 -45 87 0 36 -239 222 -403 314 -111 61
-111 61 -34 -67 240 -399 412 -894 468 -1347 16 -131 16 -473 0 -600 -89 -706
-508 -1394 -1179 -1933 -166 -133 -337 -259 -470 -346 -907 -594 -2252 -880
-3617 -771 -979 79 -1851 355 -2515 798 -262 175 -567 425 -766 628 -475 486
-754 1020 -845 1620 -28 182 -31 522 -6 694 35 248 60 336 266 929 67 192 119
351 117 353 -3 3 -47 -24 -98 -58 -59 -40 -146 -116 -236 -206 -79 -79 -145
-143 -147 -143 -10 0 -131 202 -180 300 -200 399 -309 880 -355 1565 -5 83
-14 391 -20 685 -16 863 -32 1035 -116 1219 -19 41 -34 89 -34 108 0 84 76
152 229 204 160 55 515 87 792 70 191 -11 371 -30 388 -40 5 -4 22 -78 36
-166 39 -243 111 -624 166 -879 27 -126 49 -231 49 -234 0 -2 -26 -1 -58 3
-78 9 -133 -7 -168 -47 -25 -31 -26 -37 -21 -108 4 -50 21 -124 53 -220 36
-114 47 -161 48 -217 1 -66 -1 -75 -26 -100 -23 -23 -38 -28 -92 -31 -35 -2
-109 3 -163 13 -192 32 -341 18 -419 -41 -163 -122 -50 -494 302 -995 100
-141 206 -280 211 -275 4 4 964 2803 1081 3152 163 486 282 776 393 952 343
550 1042 943 1940 1091 298 49 395 56 764 56 288 -1 370 -4 535 -24 724 -84
1328 -312 1766 -664 110 -89 275 -264 356 -378 124 -172 249 -457 406 -919 64
-186 1001 -2875 1072 -3075 l18 -50 87 180 c242 500 385 901 387 1093 1 68 -2
87 -19 110 -46 62 -162 29 -324 -92 -40 -30 -74 -54 -76 -52 -2 1 13 49 32
107 51 149 93 313 101 390 5 54 3 74 -14 113 -31 69 -83 90 -217 90 -55 0
-140 -6 -188 -13 -48 -7 -90 -11 -93 -8 -3 3 19 117 50 253 58 264 129 620
167 844 12 74 24 137 25 138 6 8 205 31 366 43 470 33 895 -38 1029 -172 51
-51 59 -95 29 -163 -101 -230 -115 -361 -130 -1182 -5 -304 -14 -628 -20 -720
-43 -675 -142 -1145 -330 -1556 l-58 -128 27 -42 c81 -127 216 -212 378 -238
123 -20 125 -19 198 133 108 226 194 476 244 712 129 595 154 876 171 1870 12
709 15 747 95 933 78 185 70 418 -21 609 -121 254 -392 428 -784 507 -295 59
-635 69 -1040 30 l-66 -6 14 133 c10 86 15 264 16 499 1 336 -1 375 -21 485
-65 356 -206 513 -431 478 -183 -28 -397 -167 -709 -459 l-108 -102 0 107 c0
124 -17 199 -52 237 -23 25 -29 26 -87 22 -68 -6 -151 -41 -244 -103 l-54 -35
-66 43 c-459 296 -1050 503 -1687 591 -238 33 -324 39 -690 42 l-380 4 -42 96
c-59 135 -144 259 -201 295 -55 35 -95 37 -160 7 -60 -28 -201 -168 -272 -270
-30 -43 -56 -78 -60 -78 -3 0 -48 50 -100 110 -118 140 -290 306 -400 388 -91
69 -236 143 -312 161 -68 16 -165 13 -229 -8z"/>
<path d="M4370 8710 c-135 -21 -261 -86 -377 -194 -85 -79 -145 -159 -198
-266 -32 -63 -75 -171 -75 -188 0 -2 32 30 71 72 54 58 88 84 142 111 78 38
191 60 262 50 22 -3 60 -7 85 -10 135 -14 378 -116 712 -299 l87 -47 -34 -44
c-42 -56 -75 -143 -75 -199 l0 -44 37 19 c81 41 186 11 230 -66 42 -75 25
-156 -46 -217 l-42 -36 48 -18 c35 -14 74 -19 143 -19 85 0 101 3 154 29 109
54 191 164 204 272 3 27 10 44 18 44 22 0 119 -23 128 -31 21 -18 -59 -222
-129 -331 -123 -189 -274 -306 -475 -370 -64 -19 -96 -23 -210 -23 -125 1
-142 3 -226 32 -124 43 -222 103 -313 193 -134 131 -214 275 -268 479 -22 83
-26 117 -25 246 0 96 5 173 15 215 8 36 14 66 12 68 -1 1 -16 -34 -34 -77 -53
-135 -65 -201 -64 -356 0 -119 4 -155 26 -238 104 -390 448 -691 877 -768 165
-30 423 -11 575 41 32 11 59 19 61 18 1 -2 -26 -26 -61 -53 -97 -76 -215 -139
-328 -176 l-102 -34 109 -3 c181 -5 354 39 511 129 97 55 244 192 312 291 130
188 218 440 239 683 l7 80 51 46 c89 80 136 192 136 324 0 130 -51 263 -132
343 -75 76 -75 76 -75 -46 -1 -227 -65 -323 -217 -323 -149 0 -299 63 -759
320 -578 322 -790 402 -987 371z"/>
<path d="M6610 8545 c106 -140 150 -269 150 -440 0 -117 -23 -223 -70 -324
-17 -35 -28 -66 -25 -69 8 -8 114 79 160 131 142 162 159 370 44 549 -44 67
-134 146 -204 179 -109 50 -111 48 -55 -26z"/>
<path d="M8922 8304 c-145 -42 -239 -83 -552 -240 -332 -166 -429 -204 -522
-204 -71 0 -109 18 -137 64 -24 38 -40 146 -33 214 4 42 3 43 -16 33 -36 -19
-91 -93 -113 -150 -14 -38 -22 -81 -23 -131 -1 -103 23 -170 85 -232 l47 -47
17 -112 c34 -234 126 -445 253 -580 89 -94 157 -141 265 -181 68 -25 101 -31
192 -34 87 -3 105 -2 85 7 -162 73 -212 103 -284 170 -42 39 -75 73 -74 74 2
2 41 -10 88 -25 394 -131 832 34 1015 382 91 173 101 404 25 583 -11 28 -18
39 -15 25 14 -57 17 -229 6 -300 -15 -94 -50 -195 -93 -268 -42 -71 -158 -190
-222 -227 -305 -177 -659 -58 -829 280 -27 54 -62 164 -54 171 5 5 113 34 127
34 6 0 10 -14 10 -30 0 -69 83 -169 157 -189 21 -6 59 -11 86 -11 47 0 47 0
40 28 -27 99 34 190 135 200 l49 4 -9 47 c-4 25 -21 65 -37 88 l-29 41 151 81
c188 99 265 133 373 167 73 23 97 26 186 22 94 -3 108 -7 166 -38 36 -19 83
-56 109 -84 55 -62 52 -43 -12 89 -125 257 -347 358 -613 279z"/>
<path d="M7492 8239 c-58 -29 -127 -108 -152 -177 -44 -116 -11 -260 81 -347
38 -36 41 -38 35 -15 -62 228 -40 359 90 538 22 29 4 29 -54 1z"/>
<path d="M6780 7131 c-42 -14 -84 -38 -105 -61 l-19 -21 24 5 c68 14 94 15
141 6 28 -5 64 -19 80 -31 32 -23 69 -86 69 -119 0 -18 -6 -20 -73 -20 -40 0
-100 -7 -132 -15 -86 -22 -212 -87 -270 -139 l-50 -45 67 24 c287 103 541 52
682 -136 164 -219 126 -528 -84 -668 -105 -69 -172 -86 -345 -86 -170 0 -222
11 -365 77 -206 95 -358 270 -378 436 -7 64 -18 59 -25 -12 -27 -293 166 -541
508 -649 183 -57 430 -63 600 -12 297 87 476 289 478 540 1 105 -15 170 -70
282 -52 107 -146 216 -240 279 -69 45 -83 61 -83 88 0 31 -47 125 -85 171 -18
23 -62 56 -96 75 -51 27 -76 34 -133 36 -39 2 -82 0 -96 -5z"/>
<path d="M3230 6311 c-402 -57 -723 -431 -772 -901 -12 -109 0 -268 16 -225
120 316 235 506 416 685 85 85 207 174 308 224 129 65 341 115 487 116 l60 1
-69 30 c-140 60 -316 88 -446 70z"/>
<path d="M10475 5726 c-369 -177 -926 -357 -1438 -465 -146 -31 -385 -76 -447
-85 -19 -3 -96 -14 -170 -25 -276 -42 -596 -75 -975 -103 -268 -20 -1126 -16
-1415 5 -434 33 -802 78 -1210 148 -618 106 -1283 304 -1719 510 -68 33 -127
57 -130 54 -3 -3 51 -61 120 -129 390 -382 956 -681 1676 -886 1439 -410 3218
-342 4523 171 470 184 849 413 1142 688 65 60 168 173 156 170 -1 0 -52 -24
-113 -53z"/>
<path d="M8409 4005 c-247 -128 -695 -243 -1179 -302 -209 -26 -861 -26 -1070
0 -403 49 -728 125 -975 227 -55 23 -107 44 -115 47 -25 10 50 -66 127 -128
232 -185 595 -322 1038 -389 181 -28 581 -38 787 -21 568 49 1078 234 1366
496 59 54 92 96 75 95 -4 -1 -29 -12 -54 -25z"/>
</g>
</svg>
